<svg xmlns="http://www.w3.org/2000/svg" xmlns:xlink="http://www.w3.org/1999/xlink" viewBox="0 0 1712.38 720.6"><defs><style>.cls-1{fill:none;clip-rule:evenodd;}.cls-2{isolation:isolate;}.cls-3,.cls-7{fill:#111937;}.cls-3{fill-rule:evenodd;}.cls-4{fill:#111737;}.cls-5{clip-path:url(#clip-path);}.cls-6{fill:#314888;}.cls-8{opacity:0.6;mix-blend-mode:screen;fill:url(#未命名的渐变_20);}.cls-9{fill:#fff;}</style><clipPath id="clip-path"><path class="cls-1" d="M628.23,300.11,252.49,83.18C166,33.25,93.65,48.87,93.65,159.3V593.16c0,99.87,49.71,154.72,145.34,99.51L614.73,475.73C701.21,425.8,723.86,355.32,628.23,300.11Z"/></clipPath><linearGradient id="未命名的渐变_20" x1="263.75" y1="482.83" x2="745.12" y2="1.46" gradientTransform="translate(-32.85 -11.68)" gradientUnits="userSpaceOnUse"><stop offset="0" stop-color="#1d3369"/><stop offset="0.8" stop-color="#40568f"/></linearGradient></defs><title>Asset 7</title><g class="cls-2"><g id="Layer_2" data-name="Layer 2"><g id="图层_1" data-name="图层 1"><path class="cls-3" d="M171.05,717.6c-25.62,0-46.51-12.08-60.43-34.93-13.07-21.45-20-52.4-20-89.51V258.07L4.76,219.13a3,3,0,0,1-1.69-3.36L22.6,124.23a3,3,0,0,1,2.94-2.38H94.08c4.4-22.37,13.14-39.62,26-51.3s29.15-17.41,48.8-17.41c24.59,0,54,9.49,85.11,27.44l71.49,41.27h139c43.37,0,81.28,16.37,106.76,46.1s36.15,69.89,30,113.1l28.51,16.46c41.68,24.06,63.71,52.89,63.71,83.35,0,34.11-27.42,68.73-77.21,97.47L518.94,534.5l64.12,111.77a3,3,0,0,1-2.6,4.49H464a3,3,0,0,1-2.61-1.51L426.23,588,240.49,695.26C214.82,710.08,191.46,717.6,171.05,717.6Z"/><path class="cls-4" d="M168.88,56.14c24.4,0,53.12,9.43,83.61,27l72.19,41.67H464.49c89.1,0,147.06,69.94,133.46,157.78l30.28,17.48c95.63,55.21,73,125.69-13.5,175.62L514.85,533.4l65.61,114.36H464l-36.63-63.83L239,692.67c-26.09,15.06-48.76,21.93-67.94,21.93-51.11,0-77.4-48.82-77.4-121.44v-337L6,216.4l19.54-91.55h71c8.5-47.25,35.5-68.71,72.32-68.71m0-6c-20.42,0-37.52,6.12-50.81,18.19C105.19,80,96.31,97,91.63,118.85H25.54a6,6,0,0,0-5.87,4.75L.13,215.14a6,6,0,0,0,3.39,6.72L87.65,260V593.16c0,37.66,7,69.15,20.41,91.07,14.49,23.79,36.27,36.37,63,36.37,20.94,0,44.81-7.65,70.94-22.74L425.12,592.13l33.63,58.62a6,6,0,0,0,5.21,3h116.5a6,6,0,0,0,5.2-9L523,535.61l94.7-54.68c50.76-29.31,78.71-64.84,78.71-100.07,0-15.59-5.43-30.75-16.12-45.06-10.94-14.64-27.46-28.4-49.09-40.89l-26.76-15.45c5.69-43.31-5.23-83.46-30.94-113.46-26.06-30.4-64.79-47.15-109-47.15H326.28L255.49,78C224,59.77,194,50.14,168.88,50.14Z"/><g class="cls-5"><path class="cls-3" d="M628.23,300.11,252.49,83.18C166,33.25,93.65,48.87,93.65,159.3V593.16c0,99.87,49.71,154.72,145.34,99.51L614.73,475.73C701.21,425.8,723.86,355.32,628.23,300.11Z"/><rect class="cls-6" x="94.23" y="56.54" width="596.81" height="657.91"/><polygon class="cls-7" points="92.28 714.45 92.28 148.51 228.66 148.51 544.5 210.51 430.77 445 425.15 714.6 92.28 714.45"/><path class="cls-8" d="M721.81,613.48H588.11c-286.52,0-520.94-234.42-520.94-520.94V1.63A1.63,1.63,0,0,1,68.8,0h653a1.63,1.63,0,0,1,1.63,1.62V611.86A1.63,1.63,0,0,1,721.81,613.48Z"/></g><polygon class="cls-9" points="244.04 307.94 171.52 647.76 263.06 647.76 291.08 516.45 303.11 460.13 322.64 368.59 335.58 307.94 244.04 307.94"/><path class="cls-9" d="M464.42,445.5c64-26.21,117.4-84.91,131.93-153,19.73-92.43-39.43-167.64-131.86-167.64H25.54L6,216.4H445c42,0,68.81,34.13,59.86,76.09s-50.38,76.1-92.34,76.1H375.84l-19.53,91.54L464,647.76h116.5Z"/><path class="cls-6" d="M779.22,480.47V301.35h34.33V480.47Zm13.65-73.86V379h71.84a18.54,18.54,0,0,0,15-6.83q5.64-6.84,5.65-18.28t-5.65-18.16a18.54,18.54,0,0,0-15-6.83H792.87V301.35h72.8q16.27,0,28.41,6.53A47,47,0,0,1,913,326.22q6.75,11.82,6.75,27.7T913,381.62A47.38,47.38,0,0,1,894.08,400q-12.14,6.59-28.41,6.59Zm95.69,73.86-47.29-79.4,34.19-5.67,52.67,85.07Z"/><path class="cls-6" d="M954.74,330.9V301.47h32.82V330.9Zm0,149.57V352.69h32.82V480.47Z"/><path class="cls-6" d="M1082.83,482.32q-28.82,0-44.6-14.59t-15.79-41.06v-20.8q0-26.22,15.79-40.63t44.6-14.4q28.82,0,44.6,14.4t15.79,40.63V427q0,26.35-15.79,40.81T1082.83,482.32Zm-.14-28.19q13.1,0,20.34-7.08t7.24-20V405.87q0-12.81-7.24-19.82t-20.34-7q-13.1,0-20.2,7t-7.1,19.82V427q0,12.93,7.1,20T1082.69,454.13Z"/><path class="cls-7" d="M1183.21,480.47v-179h33v179Zm19,0V452.28H1249q20.55,0,31.85-9.11t11.31-25.85V364.63q0-16.74-11.31-25.85T1249,329.67h-46.74v-28.2h45.92q37.08,0,57.35,16.81t20.27,47.33v50.72q0,30.54-20.34,47.34T1248,480.47Z"/><path class="cls-7" d="M1427.11,482.32q-30.61,0-47.36-14.9T1363,425.07v-14.4q0-28.56,16.13-44.2t45.5-15.63q27.57,0,42.81,18.22t15.24,51.09v8.37h-97.21V407h66.6l-.14-1.36q-1.38-13.29-8.41-20.74t-18.89-7.45q-14.76,0-23,8.31t-8.2,23.58v16.24q0,14.54,8.82,22.35t24.82,7.82a47.88,47.88,0,0,0,30.33-10.47l21.51,18a81.73,81.73,0,0,1-24.47,14.09A79,79,0,0,1,1427.11,482.32Z"/><path class="cls-7" d="M1521.28,480.47v-179h33v179Zm13.79-150.19V301.47H1650.2v28.81Zm0,77.31v-28.8l100-.13v28.81Z"/><path class="cls-7" d="M1679.56,330.9V301.47h32.82V330.9Zm0,149.57V352.69h32.82V480.47Z"/></g></g></g></svg>